<?xml version="1.0" encoding="UTF-8" standalone="no"?>
<svg
   xmlns:dc="http://purl.org/dc/elements/1.1/"
   xmlns:cc="http://creativecommons.org/ns#"
   xmlns:rdf="http://www.w3.org/1999/02/22-rdf-syntax-ns#"
   xmlns:svg="http://www.w3.org/2000/svg"
   xmlns="http://www.w3.org/2000/svg"
   xmlns:sodipodi="http://sodipodi.sourceforge.net/DTD/sodipodi-0.dtd"
   xmlns:inkscape="http://www.inkscape.org/namespaces/inkscape"
   inkscape:version="1.0 (4035a4fb49, 2020-05-01)"
   sodipodi:docname="Papyrus_trnsp-bg-white.svg"
   id="svg112"
   viewBox="0 0 185.05 146.83"
   version="1.1"
   height="146.83mm"
   width="185.05mm">
  <metadata
     id="metadata116">
    <rdf:RDF>
      <cc:Work
         rdf:about="">
        <dc:format>image/svg+xml</dc:format>
        <dc:type
           rdf:resource="http://purl.org/dc/dcmitype/StillImage" />
        <dc:title></dc:title>
      </cc:Work>
    </rdf:RDF>
  </metadata>
  <sodipodi:namedview
     inkscape:current-layer="g108"
     inkscape:window-maximized="1"
     inkscape:window-y="-8"
     inkscape:window-x="-8"
     inkscape:cy="379.76859"
     inkscape:cx="349.70079"
     inkscape:zoom="1.5641104"
     showgrid="false"
     id="namedview114"
     inkscape:window-height="1017"
     inkscape:window-width="1920"
     inkscape:pageshadow="2"
     inkscape:pageopacity="0"
     guidetolerance="10"
     gridtolerance="10"
     objecttolerance="10"
     borderopacity="1"
     bordercolor="#666666"
     pagecolor="#ffffff" />
  <defs
     id="defs22">
    <clipPath
       id="clipath_lpe_path-effect12318">
      <path
         id="path2"
         fill="#fff"
         display="none"
         d="m400.99 248.85h6.1108v6.4114h6.1109l0.10047 6.4295h-6.2114v6.4295h-6.1108v-6.4295h-6.1109v-6.4289l6.111 0.0174z" />
      <path
         id="path4"
         fill="#fff"
         d="m375.19 228.23h49.73v60.5h-49.73zm25.8 20.615 1e-4 6.4295-6.111-0.0174v6.4289h6.1109v6.4295h6.1108v-6.4295h6.2114l-0.10047-6.4295h-6.1109v-6.4114z"
         class="powerclip" />
    </clipPath>
    <clipPath
       id="clipPath6989">
      <path
         id="path7"
         fill="#fff"
         display="none"
         d="m400.99 248.85h6.1108v6.4114h6.1109l0.10047 6.4295h-6.2114v6.4295h-6.1108v-6.4295h-6.1109v-6.4289l6.111 0.0174z" />
      <path
         id="path9"
         fill="#fff"
         d="m377.09 230.13h45.93v56.7h-45.93zm23.9 18.715 1e-4 6.4295-6.111-0.0174v6.4289h6.1109v6.4295h6.1108v-6.4295h6.2114l-0.10047-6.4295h-6.1109v-6.4114z"
         class="powerclip" />
    </clipPath>
    <clipPath
       id="clipPath7812">
      <path
         id="path12"
         stroke-width=".72"
         fill="#001158"
         display="none"
         d="m700.07 872.06c0.6048 0 1.3248 0.1728 1.6992 0.4032-0.144 0.8928-0.6336 3.168-1.008 4.4928-0.6336 1.3824-3.4272 4.752-4.464 4.752-0.432 0-0.6912-0.5184-0.6912-1.728 0-2.592 1.008-6.1056 2.88-7.4592 0.432-0.3168 0.9216-0.4608 1.5552-0.4608z" />
      <path
         id="path14"
         stroke-width=".72"
         fill="#001158"
         d="m683.54 861.91h31.229v31.26h-31.229zm16.533 10.146h-0.0288c-0.6336 0-1.1232 0.144-1.5552 0.4608-1.872 1.3536-2.88 4.8672-2.88 7.4592 0 1.2096 0.2592 1.728 0.6912 1.728 1.0368 0 3.8304-3.3696 4.464-4.752 0.3744-1.3248 0.864-3.6 1.008-4.4928-0.3744-0.2304-1.0944-0.4032-1.6992-0.4032z"
         class="powerclip" />
    </clipPath>
    <clipPath
       id="clipPath9236">
      <path
         id="path17"
         stroke-width=".72"
         fill="#001158"
         display="none"
         d="m719.38 872.32c1.296 0 2.5056 0.576 2.5056 2.9952 0 3.6288-2.4768 7.6032-4.2336 7.6032-0.576 0.0288-1.2672-0.5184-1.5552-0.9504l1.9008-9.4464c0.4032-0.1152 0.8928-0.2016 1.3536-0.2016z" />
      <path
         id="path19"
         stroke-width=".72"
         fill="#001158"
         d="m698.95 858.81h34.933v43.681h-34.933zm20.432 13.513h-0.0288c-0.4608 0-0.9504 0.0864-1.3536 0.2016l-1.9008 9.4464c0.288 0.432 0.9792 0.9792 1.5552 0.9504 1.7568 0 4.2336-3.9744 4.2336-7.6032 0-2.4192-1.2096-2.9952-2.5056-2.9952z"
         class="powerclip" />
    </clipPath>
  </defs>
  <g
     id="g110"
     transform="translate(37.987 -5.8371)">
    <g
       id="g108"
       transform="matrix(1.0583 0 0 1.0583 -703.35 -797.58)">
      <g
         id="g24"
         transform="translate(248.5 606.97)" />
      <path
         d="m 707.53,881.26 c -1,1 -2.4,2 -2.76,2 -0.24,0 -0.32,-0.4 -0.08,-1.64 0.84,-4.84 1.92,-9.52 2.68,-12.64 l -0.2,-0.16 c -0.6,-0.04 -1.24,-0.12 -2.04,-0.28 -0.88,-0.16 -1.72,-0.28 -2.52,-0.28 h -0.04 c -3,0 -6.24,1.72 -8.12,3.4 -2.76,2.4 -4.56,6.52 -4.56,10.4 0,3.16 1.24,4.76 2.64,4.76 1.28,0 2.84,-0.92 4.08,-1.96 1.32,-1.12 2.92,-2.68 4.36,-4.72 h 0.12 l -0.56,2.72 c -0.68,3.4 0.08,3.96 0.96,3.96 1.24,0 4.12,-1.48 6.64,-4.52 z m -6.92,-11.08 c 0.84,0 1.84,0.24 2.36,0.56 -0.2,1.24 -0.88,4.4 -1.4,6.24 -0.88,1.92 -4.76,6.6 -6.2,6.6 -0.6,0 -0.96,-0.72 -0.96,-2.4 0,-3.6 1.4,-8.48 4,-10.36 0.6,-0.44 1.28,-0.64 2.16,-0.64 z"
         id="path40"
         style="fill:#fffffa;fill-opacity:1" />
      <path
         d="m 718.73,865.62 -0.44,-0.28 c -1.32,0.6 -3.16,1.8 -4.04,2.72 l -0.44,1.76 c -1.28,0.48 -2.64,1.12 -3.88,1.96 l 0.36,1.16 c 0.88,-0.48 1.88,-0.96 3.12,-1.36 -1.36,6.56 -2.72,13.16 -4.16,19.96 -0.52,2.4 -1,2.84 -3.4,3.32 l -0.24,1.2 10.28,-0.48 0.2,-1.24 -0.92,-0.08 c -1.96,-0.24 -2.24,-0.6 -1.84,-2.68 l 1,-5.12 c 0.8,0.28 1.48,0.36 2.16,0.36 2.72,-0.68 5.72,-2.44 7.68,-4.64 2.24,-2.48 3.36,-5.56 3.36,-8.08 0,-3.72 -1.72,-5.84 -5.88,-5.84 -1.2,0 -2.44,0.16 -3.64,0.48 z m 0.8,4.64 c 1.8,0 3.48,0.8 3.48,4.16 0,5.04 -3.44,10.56 -5.88,10.56 -0.8,0.04 -1.76,-0.72 -2.16,-1.32 l 2.64,-13.12 c 0.56,-0.16 1.24,-0.28 1.88,-0.28 z"
         id="path42"
         style="fill:#fffffa;fill-opacity:1" />
      <path
         d="m 738.57,882.78 c -0.2,-3.36 -0.44,-6.2 -0.84,-9.4 -0.44,-3.68 -1.2,-5.12 -2.52,-5.12 -1.64,0 -3.84,2.2 -5.4,4.68 l 0.8,1.04 c 1.08,-1.44 1.92,-2.16 2.2,-2.16 0.28,0 0.56,0.44 0.84,2.04 0.68,3.64 1.4,10.16 1.36,13.36 -2.12,2.8 -4.84,5.28 -9.04,8.04 l 0.32,1 4.88,-1.2 c 2.6,-2.96 5.04,-6.32 7.4,-9.68 2.24,-3.16 4.96,-7.16 6.76,-10.2 1.08,-1.84 1.52,-3.28 1.52,-4.4 -0.04,-1.64 -0.96,-2.52 -1.92,-2.52 -0.8,0 -1.6,0.52 -2,1.24 -0.2,0.4 -0.24,0.84 -0.12,1.28 0.2,0.48 0.52,1.08 0.56,2.04 0,2.84 -2.76,7.04 -4.72,9.96 z"
         id="path44"
         style="fill:#fffffa;fill-opacity:1" />
      <path
         d="m 755.45,874.74 0.4,-1.84 c 0.64,-3.12 0.4,-4.64 -0.72,-4.64 -1.36,0 -4,1.76 -6.24,4.08 l 0.6,1.04 c 0.84,-0.8 2.2,-1.6 2.56,-1.6 0.32,0 0.32,0.52 0.08,1.8 -0.8,4.28 -1.76,8.68 -2.76,12.88 l 0.32,0.32 c 1.08,-0.32 2.64,-0.64 3.92,-0.8 0.4,-2.32 1,-5.36 1.56,-7.68 0.44,-1.36 1.48,-3.24 2.48,-4.6 0.84,-1.16 1.32,-1.4 1.72,-1.4 0.48,0 1.04,0.24 1.52,0.72 0.28,0.28 0.6,0.24 0.96,0 0.44,-0.36 0.84,-0.8 1.28,-1.52 0.48,-0.72 0.56,-1.56 0.12,-2.2 -0.4,-0.6 -1.12,-1.04 -1.84,-1.04 -1.68,0 -3.84,2.8 -5.8,6.48 z"
         id="path46"
         style="fill:#fffffa;fill-opacity:1" />
      <path
         d="m 782.93,881.42 c -1,1 -2.32,1.84 -2.64,1.84 -0.28,0 -0.32,-0.36 -0.08,-1.68 0.92,-4.88 1.96,-9.2 3,-13.32 h -0.52 l -3.8,1.08 c -0.52,2.52 -1.08,5 -1.64,7.32 -1.08,2 -4.84,6.84 -6.8,6.84 -0.6,0 -0.8,-0.68 -0.4,-2.56 0.68,-2.88 1.36,-5.88 2.04,-8.8 0.68,-2.96 0.36,-3.88 -0.72,-3.88 -1.36,0 -4.04,1.6 -6.52,4 l 0.48,1.12 c 1.12,-0.88 2.24,-1.72 2.56,-1.72 0.24,0.16 0.28,0.44 0,1.64 -0.6,2.68 -1.2,5.32 -1.84,7.96 -1.12,4.8 0.32,5.56 1.48,5.56 0.92,0 1.96,-0.32 2.92,-0.96 1.48,-0.92 3.84,-2.88 6.24,-6.04 h 0.04 c -0.16,0.96 -0.36,1.88 -0.6,2.88 -0.68,2.92 -0.24,4.12 0.92,4.12 1.36,0 3.92,-1.4 6.48,-4.32 z"
         id="path48"
         style="fill:#fffffa;fill-opacity:1" />
      <path
         d="m 794.89,868.26 c -1.44,0 -3.32,0.88 -4.72,2 -1.84,1.48 -2.36,2.88 -2.36,4.24 0,2.36 2.04,3.8 3.84,5.12 1.96,1.48 2.48,2.28 2.48,3.12 0,1.04 -0.88,1.8 -2.12,1.8 -1.36,0 -3,-1.08 -4.32,-2.76 -0.32,-0.4 -0.64,-0.44 -1.24,-0.12 -0.68,0.4 -1.32,1.24 -1.32,2.08 0.04,1.68 2.36,3.08 4.48,3.08 3.36,0 7.76,-2.96 7.76,-6.36 0,-2 -1.36,-3.36 -3.68,-4.96 -1.52,-1.04 -2.76,-2.08 -2.76,-3.28 0,-1.04 0.72,-1.72 1.76,-1.72 1.48,0 2.6,1.04 3.44,2.12 0.24,0.36 0.6,0.44 1.04,0.12 0.76,-0.48 1.28,-1.24 1.24,-2 0,-1.28 -1.48,-2.48 -3.48,-2.48 z"
         id="path50"
         style="fill:#fffffa;fill-opacity:1" />
      <g
         id="g60"
         stroke-width="3.8"
         stroke="#fff"
         fill="none"
         transform="translate(248.5 606.97)">
        <g
           id="g56"
           aria-label="P"
           transform="scale(1.0913 .91633)">
          <path
             id="path54"
             stroke-width="3.8"
             stroke="#fff"
             fill="none"
             d="m396.4 248.09v-51.725h17.418c3.3428 0 8.6208 0.17593 12.491 0.87967 9.3246 2.2872 18.121 8.7968 18.121 23.575 0 22.168-14.603 27.27-29.909 27.27zm0 59.482v-50.685c4.3984 0.17593 10.732 0.17593 15.306 0.17593 8.269 0 16.186-0.17593 23.223-2.815 12.667-4.3984 23.399-13.195 23.399-33.604 0-18.297-10.028-27.27-21.992-30.965-8.093-2.2872-17.594-2.2872-24.455-2.2872h-29.029v120.18z" />
        </g>
        <path
           id="path58"
           clip-path="url(#clipath_lpe_path-effect12318)"
           d="m382.09 235.13h12.256v9.0387h8.2086v-9.0387h8.5907v9.0387h6.8745v28.622h-6.8745v9.0387h-8.5907v-9.0387h-8.2086v9.0387h-12.256v-9.0387h8.2089v-8.7374h-8.2089v-11.148h8.2089v-8.7374h-8.2089z" />
      </g>
      <path
         id="path62"
         stroke-width=".25"
         stroke="#fff"
         fill="#fff"
         d="m394.88 248.85h18.333l0.10016 19.271h-18.433z"
         transform="translate(248.5 606.97)" />
      <g
         id="g66"
         aria-label="P"
         stroke-width=".91633"
         fill="#e30214"
         transform="matrix(1.0913 0 0 .91633 248.5 606.97)">
        <path
           id="path64"
           d="m396.4 248.09v-51.725h17.418c3.3428 0 8.6208 0.17593 12.491 0.87967 9.3246 2.2872 18.121 8.7968 18.121 23.575 0 22.168-14.603 27.27-29.909 27.27zm0 59.482v-50.685c4.3984 0.17593 10.732 0.17593 15.306 0.17593 8.269 0 16.186-0.17593 23.223-2.815 12.667-4.3984 23.399-13.195 23.399-33.604 0-18.297-10.028-27.27-21.992-30.965-8.093-2.2872-17.594-2.2872-24.455-2.2872h-29.029v120.18z" />
      </g>
      <path
         id="path68"
         fill="#e30214"
         clip-path="url(#clipPath6989)"
         d="m382.09 235.13h12.256v9.0387h8.2086v-9.0387h8.5907v9.0387h6.8745v28.622h-6.8745v9.0387h-8.5907v-9.0387h-8.2086v9.0387h-12.256v-9.0387h8.2089v-8.7374h-8.2089v-11.148h8.2089v-8.7374h-8.2089z"
         transform="translate(248.5 606.97)" />
      <g
         id="g106"
         transform="matrix(1.3869 .81877 -.81877 1.3869 449.58 -279.03)">
        <g
           id="g86"
           stroke-width="2.8605"
           stroke="#fff"
           fill="#fff"
           transform="matrix(-.7879 1.6135 -1.6266 -.79169 1013 -319.61)">
          <g
             id="g74"
             transform="rotate(-30.359 531.76 65.407)">
            <path
               id="path70"
               d="m541.66 62.778-7.7246 4.3099-7.5948-4.5347 0.12981-8.8446 7.7246-4.3099 7.5948 4.5347z"
               transform="rotate(-30.309 537.97 73.544)" />
            <path
               id="path72"
               d="m531.23 70.007 4.4938-7.6191 8.5302 1.9245 0.80566 8.7074-8.0323 3.457z" />
          </g>
          <g
             id="g84">
            <path
               id="path76"
               d="m532.22 68.845 0.0214-7.0764" />
            <path
               id="path78"
               d="m526.07 72.27-6.1177-3.5567" />
            <path
               id="path80"
               d="m519.79 61.876 6.0738-3.5143" />
            <path
               id="path82"
               d="m541.23 70.617 4.1469-5.6341" />
          </g>
        </g>
        <g
           id="g104"
           stroke="#001158"
           fill="none"
           transform="matrix(-.7879 1.6135 -1.6266 -.79169 1013 -319.61)">
          <g
             id="g92"
             transform="rotate(-30.359 531.76 65.407)">
            <path
               id="path88"
               d="m541.66 62.778-7.7246 4.3099-7.5948-4.5347 0.12981-8.8446 7.7246-4.3099 7.5948 4.5347z"
               transform="rotate(-30.309 537.97 73.544)" />
            <path
               id="path90"
               d="m531.23 70.007 4.4938-7.6191 8.5302 1.9245 0.80566 8.7074-8.0323 3.457z" />
          </g>
          <g
             id="g102">
            <path
               id="path94"
               stroke-width=".8px"
               d="m532.22 68.845 0.0214-7.0764" />
            <path
               id="path96"
               stroke-width=".8px"
               d="m526.07 72.27-6.1177-3.5567" />
            <path
               id="path98"
               stroke-width=".7952"
               d="m519.79 61.876 6.0738-3.5143" />
            <path
               id="path100"
               stroke-width=".8px"
               d="m541.23 70.617 4.1469-5.6341" />
          </g>
        </g>
      </g>
    </g>
  </g>
</svg>
